<?xml version="1.0" standalone="no"?><!DOCTYPE svg PUBLIC "-//W3C//DTD SVG 1.1//EN" "http://www.w3.org/Graphics/SVG/1.1/DTD/svg11.dtd"><svg xmlns="http://www.w3.org/2000/svg" version="1.1" width="900" height="500" aria-label="Ett diagram." style="overflow: hidden;"><defs id="defs"><clipPath id="_ABSTRACT_RENDERER_ID_0"><rect x="46" y="0" width="809" height="500"></rect></clipPath></defs><g><rect x="0" y="0" width="900" height="500" stroke="none" stroke-width="1.3" fill="#393b41"></rect><g clip-path="url(#_ABSTRACT_RENDERER_ID_0)"><g><g><path d="M469.52475588004114,366.34433733772516L468.35844632384067,366.9044274365431L469.4727840256363,366.42153894594014Z" stroke="#000000" stroke-width="1.3" fill="#0B6623"></path><path d="M467.81427043654395,368.52414745204356L467.22117986274867,369.6761165471807L467.83567061188705,368.5074961247818Z" stroke="#000000" stroke-width="1.3" fill="#0B6623"></path><path d="M458.71766733176133,379.0704926370857L459.16095667815466,377.9821013369501L458.6870956526997,379.0629238519663Z" stroke="#000000" stroke-width="1.3" fill="#0B6623"></path><path d="M460.7827842523731,377.36600222825024L462.60791349235143,375.4586683782215L460.7674984128424,377.37811228444104Z" stroke="#000000" stroke-width="1.3" fill="#0B6623"></path><path d="M463.3049477749562,374.6185332299945L464.40705680512724,371.28372650649095L462.67669977024,372.5749612478206L463.19183256242826,374.3854146483239Z" stroke="#000000" stroke-width="1.3" fill="#0B6623"></path><path d="M460.2645942922789,376.5500871924045L459.38565851925756,377.534029257896L460.3440806578391,376.7044904088349Z" stroke="#000000" stroke-width="1.3" fill="#0B6623"></path><path d="M466.18174277465386,361.39586562681603L468.62289134772357,358.7422495640374L466.2459433006832,358.7180294516568L466.1664569351231,361.3943518697926Z" stroke="#000000" stroke-width="1.3" fill="#0B6623"></path><path d="M470.9845535552331,357.2496851385393L471.67088775016634,355.40441532648697L470.9539818761715,357.24665762449126Z" stroke="#000000" stroke-width="1.3" fill="#0B6623"></path><path d="M471.47981475603126,355.3862502422006L468.62289134772357,357.8627567331912L471.4538288288288,355.44377300910685Z" stroke="#000000" stroke-width="1.3" fill="#0B6623"></path><path d="M473.4058305369128,353.45469627979065L472.81121137916443,351.8637376477429L468.0129863504444,352.34662613834473L471.56082970554445,349.55828570044565L469.9863882338714,346.6821473551638L473.39971620110043,350.5815854485565L473.58161769151707,348.8150310017435L470.9952536429047,346.98187124588225L469.85493001390654,341.69129044758796L469.48195552935493,345.67549893431504L468.6656916984099,341.77454708389865L465.99525553237805,340.8345039720986L466.04417021887656,343.5441290447598L464.799902881069,340.5014774268554L463.2376900810207,348.28067477233117L458.77575352197834,350.4286959891488L458.26520648164944,352.89763369502003L454.53546163613277,354.99721468707645L451.6021090301711,353.7695577407479L449.61800705907245,356.4277150745978L450.9708038575488,358.5817913195114L448.9072155208901,359.82912710714976L448.5174266128545,365.27411112187593L445.35631499788377,368.8480914551443L447.3006737862023,375.0196788413099L451.3391925902413,376.25793208680494L452.0469269605176,369.65189643479965L452.59874576757966,373.25917942259247L453.9377853104783,372.0194124200737L453.14750740673566,376.84072854098025L455.52445545377594,379.25062972292216L457.25634107261624,373.54830701414414L463.74517995344337,370.6494623135055L461.03041485277225,367.12694971904676L462.5223127909789,366.8832348382096L456.49969201584133,361.9559557256347L457.89376058105086,363.5998958535168L459.3688440957737,361.55783762836614L459.7188898210291,363.2941169347022L462.1386382187557,363.51361170315823L460.6818977114699,361.83636892075157L467.2043654392648,357.7234910869989L466.9567348388657,355.844918620422L468.60760550819276,356.4489076729319L468.05272953322446,354.6596468707613L471.01818240220086,353.9209334431313L471.1435262863535,352.4692404572756L473.39971620110043,353.50010899050596Z" stroke="#000000" stroke-width="1.3" fill="#0B6623"></path><path d="M472.47339432553355,351.11442792094584L471.779417210835,349.293378221275L470.59629323115064,351.37933540011653L472.14169160771513,351.46561955047486Z" stroke="#000000" stroke-width="1.3" fill="#0B6623"></path><path d="M469.2144533375657,340.2986339856615L468.10928713948846,338.3413461538462L469.2144533375657,340.3001477426854Z" stroke="#000000" stroke-width="1.3" fill="#0B6623"></path><path d="M452.14475633351475,377.18889265646214L451.9567405072858,372.7081718659174L451.9475690035673,376.4244453594263Z" stroke="#000000" stroke-width="1.3" fill="#0B6623"></path><path d="M454.11204388112947,380.4222776593683L454.937479215793,379.09622650649106L454.26948802829673,380.3874612478199Z" stroke="#000000" stroke-width="1.3" fill="#0B6623"></path><path d="M457.3725134530504,376.8331597558615L457.69351608319727,375.64031922108165L457.30219859120865,376.84072854098025Z" stroke="#000000" stroke-width="1.3" fill="#0B6623"></path><path d="M458.3034210804764,375.77958486727414L460.57183966684806,374.1023420848668L458.6213665427173,374.2067913195113L458.2957781607111,375.7977499515601Z" stroke="#000000" stroke-width="1.3" fill="#0B6623"></path><path d="M462.15392405828646,371.99973357876365L460.50305338895936,372.23739343150555L462.23188183989356,372.0375775043594Z" stroke="#000000" stroke-width="1.3" fill="#0B6623"></path><path d="M465.92341208658326,367.7521313698899L462.2777393584861,366.28832832784366L465.8500400568354,367.721856229414Z" stroke="#000000" stroke-width="1.3" fill="#0B6623"></path><path d="M467.01787819698893,367.4887376477427L467.84025636374633,366.04612720403054L465.4006363746297,366.60167603177706L466.9995351895519,367.49782018988583Z" stroke="#000000" stroke-width="1.3" fill="#0B6623"></path><path d="M468.0741297085676,365.69039430342923L468.19947359272027,363.99498643673707L465.8316970493984,364.1478758961443L464.553800864623,362.4252204030226L464.2343268184292,365.43305560937847L460.55043949150496,364.9471396047275L465.85156864078846,366.34433733772516L467.0362212044259,364.92291949234647L464.75557394642965,364.356774365433L466.75343317310603,364.1009494284052L467.97477175161737,365.658605405929Z" stroke="#000000" stroke-width="1.3" fill="#0B6623"></path><path d="M451.9735549307697,370.2271241038558L452.4367158685531,371.82111024995146L452.1630993409517,370.396664890525Z" stroke="#000000" stroke-width="1.3" fill="#0B6623"></path><path d="M463.6397076606808,364.13727959697775L462.5406557984159,363.4212725247044L463.63053615696236,364.14333462507284Z" stroke="#000000" stroke-width="1.3" fill="#0B6623"></path><path d="M460.57642541870734,364.60200300329365L458.69473857246504,363.41067622553766L460.45413870246085,364.63076438674705Z" stroke="#000000" stroke-width="1.3" fill="#0B6623"></path><path d="M465.0093188826411,360.8312342569265L466.14505675977995,362.0149922495641L465.0811623284358,360.6889410966866Z" stroke="#000000" stroke-width="1.3" fill="#0B6623"></path><path d="M501.9139212618659,225.08053187366767L501.94907869278677,223.47443567138197L500.6543680845275,226.80015985274161L501.915449845819,225.11080701414488Z" stroke="#000000" stroke-width="1.3" fill="#0B6623"></path><path d="M501.94143577302134,222.92645562875379L500.7353830340408,222.4874660918426L500.7797119686801,224.689982561519L501.98117895580145,222.99608845184983Z" stroke="#000000" stroke-width="1.3" fill="#0B6623"></path><path d="M493.7573972882279,227.1225900988183L495.2813954894492,221.47779015694653L495.78888536187196,225.12745834140696L496.1526883427051,222.28159513660168L497.8937454652639,222.95218949815916L499.4559582653123,220.26678453787963L504.0004383578209,207.96599496221663L504.7922448455167,208.9393407285406L506.6540601003688,204.85976554931207L508.06188592115603,205.70746948265827L512.2486773686438,200.64546599496202L509.2709958280428,198.16139071885314L509.78918578813716,196.5462119744233L511.3911417709656,197.70877736872632L510.3196044198561,195.90740651036597L507.81119815285086,195.55621488083636L504.3871700979503,191.77939110637493L507.2945367767096,192.47571933733758L507.1768358123224,188.95926177097456L502.91361516718064,186.24660918426562L503.66873564000247,185.34138248401462L505.21566260052,187.23206500678126L506.22911376141246,182.83914212361972L508.69777684563763,182.10345621003614L508.4684892526755,179.76924287928776L511.05638188524097,179.56034440999812L509.6011699619083,176.2542990699475L501.01511389745446,172.9119235613254L498.330920475845,174.41659804301358L491.6678230243666,168.15569899244343L484.70206595017834,166.19386988955688L484.41774933490535,171.07573629141598L478.82160348267735,175.83498837434618L476.33306880706215,171.74481689595024L468.73142080839233,167.30194003100146L466.6235035370941,163.02709019569937L464.88856075034766,164.19419686107284L461.68464878469075,162.80608167021916L462.22118175222204,159.91783326874577L458.8705257270694,160.93053671769047L454.729591798174,159.15338597171097L455.7170570318641,155.80949670606432L453.56022507406743,157.55485855454316L450.89896041175405,156.6799069947688L445.3960581806639,147.65640137570242L443.1948972882279,148.85681069560192L441.0151365711349,146.0866353419888L441.12519461575675,143.7176055996896L438.1398701553903,143.1983869405163L436.73815867041543,141.10486097655496L434.000464810448,142.52022379383848L430.7109521434186,140.86871488083696L429.33522658564607,136.96170800232505L423.4608784539573,134.40043111800048L422.64614320696535,131.46071497771788L418.3615223864805,131.63025576438676L418.7054537759235,133.66928647548914L411.4706659259931,138.78275770199545L403.7620170506077,139.23082978104907L405.3823160408731,151.28184944778044L403.67794493318826,169.74363011044318L399.9971147741702,178.19190806045304L409.83660968015,181.6765767293158L407.30068890198925,183.20698508041144L408.4624127063305,186.97775382677818L411.6693818398936,189.27563698895622L411.0548910907552,191.46301588839444L413.42419621803015,192.82993848091456L415.8515875355221,190.34132193373338L414.4407045468287,193.6261746754503L418.85066925146623,197.54075033908137L422.95950291734687,198.3097389071889L421.6479778856037,201.79289381902714L424.0356260203156,201.77472873474122L426.59447555777257,207.65264725828274L428.8231509613641,206.6217787250534L428.71309291674226,208.40044322805613L434.0065791462603,209.70530178260012L435.44803381401533,212.66469676419297L437.32972066025764,212.36497287347368L436.0915676582623,213.76368436349534L437.0622184684685,216.74729945746967L439.5843819910515,215.80877010269333L439.73876897031255,217.79481931796136L443.69932999274437,219.17687948072123L450.993732616845,219.00733869405104L451.84515387871096,220.2637570238327L460.7659698288893,217.10151860104625L463.9438958673438,220.69215026157673L470.773608969708,223.68182038364682L477.81885240945644,234.99109910869976L477.7500661315678,232.86275673319145L478.56327279460675,234.2584407091643L480.1484143539513,233.37137909319995L479.23279256605593,230.42258041077272L482.51466231332006,235.23784150358424L487.8356630539936,227.32543354001106L491.2031335026301,227.68873522573136L492.0362117570591,224.39328618484765L492.2012988239918,227.77804689013743L492.44740084043775,223.27461974423503L493.70236826591696,227.1225900988183Z" stroke="#000000" stroke-width="1.3" fill="#0B6623"></path><path d="M480.1071425872181,235.83274801395083L479.4987661738921,234.05711102499544L479.99708454259627,235.80247287347427Z" stroke="#000000" stroke-width="1.3" fill="#0B6623"></path><path d="M515.4113175675676,169.19565006781673L514.394809238769,168.67491765161802L515.4342463268638,169.22895272234084Z" stroke="#000000" stroke-width="1.3" fill="#0B6623"></path><path d="M527.5008880524821,162.3156243944968L526.533294410182,161.08948120519324L527.1309707358365,162.14002857973264Z" stroke="#000000" stroke-width="1.3" fill="#0B6623"></path><path d="M527.9502917346878,156.89183297810504L527.7378185652095,155.7322950978491L527.7454614849748,156.94784198798678Z" stroke="#000000" stroke-width="1.3" fill="#0B6623"></path><path d="M518.2086262017051,167.71519569850835L517.8509375566842,166.2831815539625L518.1169111645203,167.67432425886437Z" stroke="#000000" stroke-width="1.3" fill="#0B6623"></path><path d="M516.2321671503719,173.82320528967276L517.4840774079448,174.15774559193798L516.2749675010581,173.70059097074235Z" stroke="#000000" stroke-width="1.3" fill="#0B6623"></path><path d="M541.3972447699377,154.7438117612861L540.9707698470282,153.7462458825813L541.3957161859846,154.8891324355741Z" stroke="#000000" stroke-width="1.3" fill="#0B6623"></path><path d="M523.1077377713284,164.7633695020347L524.6516075639397,164.45607682619573L523.0924519317975,164.78607585739186Z" stroke="#000000" stroke-width="1.3" fill="#0B6623"></path><path d="M515.5122041084709,171.07725004844028L514.4865242759538,170.48688480914538L515.5794618024065,171.18321304010797Z" stroke="#000000" stroke-width="1.3" fill="#0B6623"></path><path d="M515.9295075276618,173.64458196085997L514.5598963057016,172.21105405929026L515.894350096741,173.7535724665763Z" stroke="#000000" stroke-width="1.3" fill="#0B6623"></path><path d="M521.6250113368402,165.69281631466737L520.7185610526635,163.49181360201527L521.5883253219663,165.65799990311936Z" stroke="#000000" stroke-width="1.3" fill="#0B6623"></path><path d="M530.7323145292944,155.08592084867306L529.4742899359092,152.5322127494677L530.6176707328134,155.17674627010237Z" stroke="#000000" stroke-width="1.3" fill="#0B6623"></path><path d="M545.764409123889,153.39051298197998L544.0233520013302,153.4026230381711L544.0233520013302,154.85734353807496L545.8179095622468,153.63120034877002Z" stroke="#000000" stroke-width="1.3" fill="#0B6623"></path><path d="M532.4412713888385,153.6856956016277L532.8280031289679,156.57394400309977L532.4963004111494,153.7568421817474Z" stroke="#000000" stroke-width="1.3" fill="#0B6623"></path><path d="M527.4749021252796,160.57177630304233L528.0160208446703,159.12613834528193L526.2612064665337,159.76948508041127L527.3403867374086,160.65503293935325Z" stroke="#000000" stroke-width="1.3" fill="#0B6623"></path><path d="M525.8056884485156,151.81317816314615L527.6109460971038,151.23795049409046L528.714583711228,153.20280711102436L527.8494051937844,147.41722776593602L531.1725467077816,151.8040956210037L534.1823285113974,152.84404669637635L534.9619063274685,155.32358070141385L536.9964515690186,152.58368048827754L534.460530790858,148.58282067428775L537.8356441592599,151.83437076148115L539.1272975996131,150.54313602015168L539.6913450782997,153.00450494090256L540.6268384575851,149.88011044371103L540.7384250861601,151.60427969385765L543.3125604631477,151.73749031195544L544.0890811113127,150.09809145514453L547.3740080264829,152.7032672931602L549.2480519529597,150.59460375896154L551.0945813682811,150.95487793063407L547.6781962331459,138.61473067234897L544.6286712467502,136.842121197442L543.4486044349719,133.03502228250375L543.2835173680392,127.45985516372677L546.6234733055203,123.19408787056857L546.941418767761,115.46787202092568L548.7237476570531,113.1518237744622L541.913906146079,99.53255183104042L542.0667645413871,96.07361703158362L545.2997196021525,93.10513950784727L545.1361611191729,89.42973745398064L539.4849862446339,87.22419347025779L541.8909773867827,81.69746657624432L540.759825261503,73.01607004456557L543.4363757633472,68.24773541949209L539.373399616059,64.6298561325317L537.9487593717879,60.494271943421886L535.7475984793518,60.974132919976L534.2923865560192,54.17736388296834L527.8463480258783,48.97912226312695L518.7145874901748,47.04908205774044L516.6800422486244,43.09968998256131L513.8628620230969,42.609232706838974L512.8631681177823,39.976809242394715L509.7738999486063,38.62805173416045L504.80294493318826,31.399861945359763L501.04415699256305,29.719591648905087L501.4905035068625,26.854049602790365L499.5492018864502,23.996076341794236L488.82007111977754,23.26039042821193L492.7210173680392,28.307256345669106L492.8754043473004,33.19669153264887L487.1325144355765,43.72638539042817L491.60209391438417,46.62523009106806L486.9368556895823,52.3850755667502L472.02704781123407,45.43693082735856L466.45383071830224,45.93192937415297L463.2529759205515,42.81813117612815L458.90874032589636,44.670969773300314L459.374958431586,58.42496609184394L455.49235519076126,67.93892898663012L446.03959202491086,61.8112405541561L437.7393811596832,69.93708825808942L433.7635342977205,83.68957081960815L429.01269537154604,85.96323386940446L427.96561536368586,89.2874442937408L432.68129685893956,98.3018673706641L432.54066713525606,104.52492249564149L427.2823383366588,109.69137521798112L416.88949603966387,125.99453836465763L418.3615223864805,131.63025576438676L422.64614320696535,131.46071497771788L423.4608784539573,134.40043111800048L429.33522658564607,136.96170800232505L430.7170664792309,140.8717423948843L434.000464810448,142.52022379383848L436.73815867041543,141.10486097655496L438.1398701553903,143.1983869405163L441.12519461575675,143.7176055996896L441.0151365711349,146.0866353419888L443.1948972882279,148.85681069560192L445.3960581806639,147.65640137570242L450.89896041175405,156.6799069947688L453.56022507406743,157.55485855454316L455.7170570318641,155.80949670606432L454.729591798174,159.15338597171097L458.8705257270694,160.93053671769047L462.22118175222204,159.91783326874577L461.68464878469075,162.80608167021916L464.88856075034766,164.19419686107284L466.6235035370941,163.02709019569937L468.73142080839233,167.30194003100146L476.33306880706215,171.74481689595024L478.82160348267735,175.83498837434618L484.41774933490535,171.07573629141598L484.70206595017834,166.19386988955688L491.6678230243666,168.15569899244343L498.330920475845,174.41659804301358L501.01511389745446,172.9119235613254L502.77604261140334,174.67242298004265L506.1251700526029,174.40600174384784L511.08236781244335,178.45530178260043L510.6146211228007,175.6624200736289L511.86041704456136,175.3460448556492L510.0001303736623,170.30523396628584L506.51954471249775,168.67643140864215L507.5727390561703,167.12937173028442L510.91422357760445,172.47898905250892L512.1921197623799,171.81596347607163L514.2495937632264,173.78233385002923L512.5436940715883,171.9249539817863L513.7268180512729,169.42422737841468L510.48010573492957,169.27285167603128L509.654670400266,166.6752446231361L512.6247090211016,168.27225828327792L511.11141090755183,165.28864318930502L516.9979877108652,166.29983288122585L516.8925154181027,164.21538945940694L518.0985681570833,165.89717351288613L518.6886015629724,163.77337240844759L515.4357749108169,161.4800305173421L519.231248866316,162.4609450687855L521.0120491716548,161.08039866304992L515.43730349477,156.37564183297758L514.2343079236955,153.23005473745383L518.4501424662917,159.0686155783761L524.2862759991535,161.24237066459958L522.7821493893222,156.68747577988734L522.1248582894975,158.63416731253653L520.3853297508919,158.5176080217019L522.1263868734507,157.47765694632793L521.184779158353,153.0726240069756L523.5387984460972,153.768952237938L523.3889972186953,148.91130594845976L525.1560402684564,149.21102983917888L525.9524325080114,151.8192331912417Z" stroke="#000000" stroke-width="1.3" fill="#0B6623"></path><path d="M537.5773134711893,154.66358263902396L537.3602545498519,153.46317331912445L537.5757848872363,154.73624297616735Z" stroke="#000000" stroke-width="1.3" fill="#0B6623"></path><path d="M513.882733614487,167.0854727765948L515.5473615393918,168.0406534586324L513.330914807425,166.8750605502809Z" stroke="#000000" stroke-width="1.3" fill="#0B6623"></path><path d="M522.4611467591753,162.48970645223753L524.087560085253,162.13548730866123L521.3712664006289,160.79429858554468L522.4672610949876,162.54117419104912Z" stroke="#000000" stroke-width="1.3" fill="#0B6623"></path><path d="M523.3996973063668,156.86155783762783L522.2440878378379,154.22913437318292L523.3324396124312,156.86155783762783Z" stroke="#000000" stroke-width="1.3" fill="#0B6623"></path><path d="M441.09615152064816,335.91630740166613L436.79318769272635,339.86569947684563L439.1365068927989,349.2101215849642L437.67823780155993,351.66694923464456L441.016665155088,359.8639435186982L444.40095002720835,359.753439255958L447.84332108954595,362.9277877349352L450.9708038575488,358.5817913195114L449.61800705907245,356.4277150745978L451.3988073644114,353.89671333075L454.53546163613277,354.99721468707645L463.2376900810207,348.28067477233117L464.799902881069,340.5014774268554L461.83139284418644,335.53029936058863L464.48195741882824,338.07795243169875L466.38198727250744,337.57538509978684L463.64735058044624,336.5672229219142L463.94236728339075,334.70076051152864L460.5443251556926,334.75979703545835L461.1725731604088,333.4594797519856L456.76566562367736,329.64632580895113L456.89100950782995,326.692985855454L452.9105768940081,328.2975683007172L453.0435636979261,329.9309121294324L451.5531943436725,329.33751937608963L451.1893913628394,325.36542094555296L449.56603520466774,324.91432135245134L446.5195673861781,326.415968320093L444.8992683959127,335.75130788606845L442.913637840861,337.57538509978684L441.35295362476575,335.8951148033326Z" stroke="#000000" stroke-width="1.3" fill="#0B6623"></path><path d="M465.53362317854766,339.2026739004074L464.39788530140885,338.18845669443897L465.54432326621924,339.35404960279004Z" stroke="#000000" stroke-width="1.3" fill="#0B6623"></path><path d="M464.9435897726585,334.3541101530715L462.6736426023339,329.76894012788205L463.2499187526452,333.7925062972286L465.96162668541024,335.9329587289286L464.9695756998609,334.38589905057114Z" stroke="#000000" stroke-width="1.3" fill="#0B6623"></path><path d="M452.4260157808815,380.7325978492542L451.42020753975453,379.8621875605504L452.27621455347963,380.7038364658011Z" stroke="#000000" stroke-width="1.3" fill="#0B6623"></path><path d="M449.40400530564125,381.3275043596204L448.69932810327106,378.08957808564253L450.61311521252793,379.636637763999L449.9634670324687,377.89430342956786L451.3605927655844,377.3099932183683L447.3006737862023,375.0196788413099L445.34102915835297,368.99189837240885L448.5403553721507,364.96681844603717L443.728373087853,359.562705870955L430.4403927837233,361.3216915326488L431.1786988330613,364.11911451269134L425.6391105870972,364.5944342181749L425.12244921095595,367.8293329781056L423.09860405707724,368.5256612090676L423.18420475844977,371.6667070335206L420.2065232178487,373.8798198023635L422.2303683717275,377.54462555706283L423.7192091420279,374.45050620034846L432.1585211469859,381.17764241426113L432.3327797176371,383.63144254989305L436.48594231815713,383.6269012788216L437.982426008223,385.7628124394502L442.1417029445553,385.787032551831L441.23983841223776,384.22332154621165L443.52048567023405,385.11189691920146L444.2098770330733,383.83579974811056L442.43060531168754,383.70713040108484L443.6519438901989,382.7943349157138L441.93381552693637,382.4446570432087L443.1872543684624,381.545485371052L444.145676507044,383.080434993218L447.82497808210894,382.3371802945165L447.1294723834573,380.5479194923465L449.4024767216881,381.3275043596204Z" stroke="#000000" stroke-width="1.3" fill="#0B6623"></path><path d="M438.4532298657718,391.238071594652L441.03500816252495,390.0467448168958L438.6305456043292,386.5984063166049L433.25604442529783,385.5387763999224L432.9839564816494,387.06464347994597L429.2878404831006,385.4751986049212L437.96714016869214,385.04680536717683L432.3327797176371,383.63144254989305L432.1585211469859,381.17764241426113L423.5709364985791,374.48683636892076L422.8158160257573,377.86554204611537L422.1050244875748,375.22100852547965L420.87604298929807,375.47683346250705L421.0059726253099,378.33329296647906L415.02768078481165,379.07957517922944L409.90998170989786,384.33533956597535L409.0585604480319,387.3007895756637L411.2627785083741,389.06885777950015L405.9417777677006,393.05306626622706L404.0753767609892,400.7232731059872L409.56757890440775,401.50285797326126L410.81490341012153,399.601579151327L412.6599042414898,403.20886213912L410.95094738194575,405.4144061228441L413.0695647409154,411.85998353032346L417.9090615363686,412.1415423367566L421.42327604450094,407.2521071497772L425.66662509825267,409.48489875993L427.1952090513332,407.7365093974036L426.3422592055142,401.3968949815931L428.86289414414415,402.1219845960085L430.06741829917166,400.01332106180973L432.4856381129452,399.8891929858557L435.18817454199166,400.9170340050373L435.79655095531774,403.90821788413103L438.53577339923817,403.6024389653172L435.9004946641272,398.1059872117804L439.22210759417135,400.1858893625266L438.93779097889836,397.2083292966478L437.1936766884334,396.32732270877705L439.13803547675195,395.07241813602013L437.50092206300263,395.69305851579117L436.1572967682448,393.95829296647935L438.6687602031561,393.50265210230583L431.21385626398217,389.6849568881998L438.3783292520709,391.2229340244134Z" stroke="#000000" stroke-width="1.3" fill="#0B6623"></path><path d="M439.45445235503956,394.73030904863356L440.58866164822547,394.253475586127L439.044791855614,393.5298997287343L439.6302395096439,392.25380255764367L439.43458076364954,394.7151714783952Z" stroke="#000000" stroke-width="1.3" fill="#0B6623"></path><path d="M401.6372853558256,401.47561034683224L400.0613153001995,403.99298827746566L401.6112994286232,402.0538655299361Z" stroke="#000000" stroke-width="1.3" fill="#0B6623"></path><path d="M410.3012992018865,428.567319802364L413.25910915109745,425.4141639217206L418.9576701281818,426.41778482852175L418.65195333756577,419.95252857973264L421.1695311082895,418.21927678744424L419.8717633321241,416.6782721371827L421.0564158957616,414.93139653168L417.2410703488724,411.8266808757989L413.0695647409154,411.85998353032346L410.95094738194575,405.4144061228441L412.6599042414898,403.20886213912L410.69414527782817,399.53648759930263L409.56757890440775,401.50285797326126L404.0753767609892,400.7232731059872L398.97143494165306,410.01774123231894L397.585009296209,407.1506854291801L399.35969526573547,399.8392390040688L397.737867691517,399.6091479364464L396.9735757149767,403.5328061422199L392.93505691093776,401.607307207905L391.062541568414,404.3381248788998L392.8204131144568,405.99417506297215L391.4232873813411,416.4905662662275L382.83417414898116,426.32847316411574L382.38629905072855,431.269376089905L386.7351203972429,428.81860346831974L390.31353543140455,432.415290156946L397.5315088578511,430.61846056965686L399.90081398512604,435.23844700639415L401.96134515387877,433.5263878124396L401.20622468105694,427.97695456306883L407.73327816071105,425.52920945553205L410.2829561944495,428.35993509009853Z" stroke="#000000" stroke-width="1.3" fill="#0B6623"></path><path d="M410.12398346332907,428.0814037977135L407.73327816071105,425.52920945553205L401.20622468105694,427.97695456306883L400.8546503718483,435.0340898081766L396.1007542777677,430.5079563069171L391.5715600247899,431.24969724859477L390.59785204667753,434.67987066460006L385.637597118931,435.6108312342568L384.79687594473666,440.8998982755286L386.6357624402926,442.065491183879L387.5727844035311,447.90405202480133L396.19399789890565,446.8974036039528L397.2854068414051,444.68731834915695L409.2175331791523,449.77959697733024L410.86840384847943,447.24405396241013L414.5950915260899,448.06753778337486L417.4443720146321,446.4750653943035L416.2765338744785,445.4547931602404L417.8127607473245,441.15572321255553L416.816124009916,437.56206403797665L419.74183369611217,437.12912952916076L418.7910544772961,434.0698265839955L423.61832260112465,434.37863301685707L424.0417403561279,432.4743266808757L418.1123632021284,425.7850343925592L413.25910915109745,425.4141639217206L413.12153659532015,427.0248013950786L410.12398346332907,428.3099811083121Z" stroke="#000000" stroke-width="1.3" fill="#0B6623"></path><path d="M432.4351948424935,448.0947854098045L432.6063962452385,454.2164188141832L439.52782438478744,436.6765161790351L440.1576009734567,430.97722098430546L442.8693089062217,427.1277368726994L442.9793669508435,421.81444971904637L434.31076735292334,439.1696739972873L432.3373654694963,447.9751986049212Z" stroke="#000000" stroke-width="1.3" fill="#0B6623"></path><path d="M434.4575114124192,432.2245567719434L433.39667414898116,430.9908447975198L435.345618689159,429.70869259833404L433.563289799867,424.6754504940901L437.34806366769453,418.38427630304164L434.3826107987182,416.2725852547957L435.3104612582381,413.8081888199966L435.26613232359875,415.4309363495441L436.559314347905,415.0146531679905L434.68374183747505,411.59961732222445L437.76230991897944,412.3943397597367L432.80816932704516,406.01234014725827L436.75191592599316,410.6777392947101L433.68099076425415,406.9781171284639L435.61159229699496,407.38077649680275L435.1239740159623,405.098030904863L438.2957857186045,407.8091697345476L438.8338472700889,406.24091745785705L436.09462482616846,404.3714275334237L434.7693425388475,400.5779524316994L430.452621455348,399.83621149002175L429.13498208779254,402.04629674481714L426.3422592055142,401.3968949815931L427.81275696837776,404.5122069366401L425.7843260626398,409.4016421236199L421.42327604450094,407.2521071497772L417.3526569774473,411.8387909319897L421.16800252433643,415.3507072272816L419.8717633321241,416.6782721371827L421.1695311082895,418.21927678744424L418.65195333756577,419.95252857973264L418.9576701281818,426.41778482852175L424.0417403561279,432.4743266808757L423.61832260112465,434.37863301685707L418.7910544772961,434.0698265839955L419.74183369611217,437.12912952916076L416.54250748231453,438.1796769037011L417.8127607473245,441.15572321255553L416.3896490870065,445.73483820964907L420.0735364139307,445.8998377252471L424.55075881250383,451.02693276496774L427.42755381220144,450.73629141639185L430.2615484612129,442.1805367176898L432.2563505199831,441.4902635148229L433.089428774412,432.418317670994L434.45598282846606,432.2245567719434Z" stroke="#000000" stroke-width="1.3" fill="#0B6623"></path><path d="M437.25940579841586,415.77758670800273L437.30526331700827,414.62410385584207L437.25176287865054,415.78515549312175Z" stroke="#000000" stroke-width="1.3" fill="#0B6623"></path><path d="M437.4902219753311,411.49668184460364L436.9108886571135,410.46581331137315L437.3893354344277,411.49365433055607Z" stroke="#000000" stroke-width="1.3" fill="#0B6623"></path><path d="M438.52660189551966,409.3925595814766L437.3022061491021,408.07104969967014L438.4303011064756,409.3743944971902Z" stroke="#000000" stroke-width="1.3" fill="#0B6623"></path><path d="M476.7962297448455,392.9970572563458L475.0016721839289,392.6443518697927L475.67883487514365,394.15054010850645L476.9139307092327,393.15297422980035Z" stroke="#000000" stroke-width="1.3" fill="#0B6623"></path><path d="M475.1423019076123,404.22913437318323L472.89375491263075,406.47857731059827L474.1380222504384,408.23453545824407L474.58742593264407,405.96692743654353L477.63695091903986,405.05867322224356L475.0658727099582,404.34266614997085Z" stroke="#000000" stroke-width="1.3" fill="#0B6623"></path><path d="M467.04233554023824,406.62087047083895L458.57245185621866,417.05368387909317L459.9573489177097,421.2134881805847L458.36150727069355,424.83439498159265L459.8992627274926,430.2006636310794L461.5165045498519,429.28181311761284L458.98058377169116,434.6435404960275L463.1291606203519,432.25029064134833L463.0940031894311,428.2615408835494L467.7546556623738,425.64274123231917L467.17073659229703,423.53105018407314L471.2398270753975,420.2583074985464L468.69320620956523,418.83234838209614L469.2480821845336,411.20906801007555L471.42784290162643,411.65562633210664L473.6351181298748,408.4222413291997L472.42753680694113,406.151605793451L470.0368315043231,406.04564280178226L469.1838816585041,408.57361703158284L468.5495193179757,406.1228444099981L467.0805501390653,406.5875678163142Z" stroke="#000000" stroke-width="1.3" fill="#0B6623"></path><path d="M413.22395172017656,455.2109571788411L416.2199762682145,454.83554543693066L416.35602024003873,456.22820189885687L420.2997668389866,453.959080120132L420.136208356007,455.48191968610735L423.89805346453835,454.99448992443297L424.15944132051516,457.4997577988761L427.42755381220144,450.73629141639185L424.2893709565271,450.9058322030614L419.2098864804402,445.79538849060225L414.5935629421367,446.85199089323737L414.5950915260899,448.06753778337486L410.86840384847943,447.24405396241013L409.7754663220268,449.73569802363846L402.4642492744422,448.6094627979075L401.24749644779007,452.9887618678549L404.5492377864441,454.4646749660923L405.25391498881436,459.58571497771754L407.7974786867404,458.5836078279403L406.3881242820001,455.0111412516953L413.2101944645988,455.20944342181747Z" stroke="#000000" stroke-width="1.3" fill="#0B6623"></path><path d="M421.58989169538665,456.2978347219529L421.75039301046013,457.5784731641154L421.7244070832578,456.42650406897883Z" stroke="#000000" stroke-width="1.3" fill="#0B6623"></path><path d="M401.3804832517081,471.3415520248013L398.8904199921398,466.07670509591185L400.95553691275165,460.7603904282115L404.64095282362905,456.9578327843443L404.5492377864441,454.4646749660923L401.24749644779007,452.9887618678549L403.7635456345607,447.0003390815736L397.2854068414051,444.68731834915695L396.19399789890565,446.8974036039528L386.38201750408126,448.10840922301844L383.5006367525243,450.66060356520074L379.17321558135313,447.2379989343148L375.2875551726224,447.19107246657643L377.4948304008706,453.4277514047663L372.1447865650885,451.42959213330727L379.208373012274,463.71524413873317L379.093729215793,466.1584479751981L381.5944925630328,468.2958728928499L378.97602825140575,471.1720112381316L380.09953745692,474.53406558806415L377.7195322419736,476.16589565975585L385.9295566539694,477.2724520441772L394.115123722716,474.6521386359234L398.51438833968194,476.20222582832776L401.3957690912389,471.4838451850411Z" stroke="#000000" stroke-width="1.3" fill="#0B6623"></path><path d="M365.38233115666003,422.41995252857936L366.5257119535643,419.1260172447202L366.44316842009795,422.62582348382114L367.9946811324748,423.5916004650261L366.9216151974122,425.5140718852932L368.62751488905013,425.8031994768456L367.71953602092026,426.7523251307889L370.70638906523976,434.1016154814958L374.3704048007739,436.7764241426081L376.3911927867465,442.05186737066447L378.6427969496342,440.83329296647884L380.53059813168875,449.4889556287542L383.5006367525243,450.66060356520074L387.5727844035311,447.90405202480133L385.0078205302618,437.2169274365434L385.637597118931,435.6108312342568L391.53793117782214,433.80037783375275L389.28174126307516,429.94937996512306L385.05673521676044,429.1047035458246L382.51775727069355,431.37382532454967L382.07905367615945,427.5712676806822L379.3306597285205,427.012691338888L379.29397371364655,424.29852499515596L376.07019015659955,424.5255885487311L374.94362378317913,422.01880691726456L371.48902404921705,422.98004262739784L369.0570469798658,416.09396192598354L364.19615000906947,416.4254747142029L365.2539301046013,422.21105405929075Z" stroke="#000000" stroke-width="1.3" fill="#0B6623"></path><path d="M390.3318784388415,379.53067477233105L391.69690390894243,382.86699525285803L394.3382969798658,378.36205434993263L392.6843691426326,380.6826438674674L390.3013067597799,379.3853540980434Z" stroke="#000000" stroke-width="1.3" fill="#0B6623"></path><path d="M359.46365409033194,405.54156171284643L361.58532861720784,401.7950130788605L357.82501209262955,402.65331331137367L359.3367816222262,405.590001937609Z" stroke="#000000" stroke-width="1.3" fill="#0B6623"></path><path d="M362.3557349295604,404.0747311567528L360.4251333968196,408.0543983724087L362.707309238769,410.1161354388687L360.90663734204,411.90236872699086L363.3539002509221,412.4957614803334L364.2771649585828,416.321025479558L369.0570469798658,416.09396192598354L371.48902404921705,422.98004262739784L374.94362378317913,422.01880691726456L376.07019015659955,424.5255885487311L379.1518154060101,424.2001307886064L379.3306597285205,427.012691338888L382.51317151883427,428.1510366208096L391.4232873813411,416.4905662662275L392.8204131144568,405.99417506297215L391.1389707660681,404.18674917651606L392.93505691093776,401.607307207905L397.17076304492406,403.39808176709954L404.2160064846726,385.7961150939741L406.81612778886273,384.05075324549506L403.028296753129,383.0940588064327L400.2508597103816,374.35362575082297L397.62628106294216,372.62794274365376L395.56422131023635,374.92582590583174L394.3581685712559,381.9632823096299L391.2719575699861,384.5215316799071L390.9326119324022,383.3165810889362L388.084860027813,384.3958898469285L384.9604344277163,389.39128802557644L382.64768690670536,388.8069778143772L384.5339595048068,383.3877276690559L382.78984521434194,383.13795776012444L380.3028391226797,387.42037638054614L378.33249440715883,386.99046938577806L379.9298646381281,388.1590898081767L378.96379957978115,389.742479655105L375.45111365560194,390.92169637667087L374.37957630449245,393.4875145320675L373.2667671866497,393.0712313505135L375.0842535068626,391.9888950784733L375.1591541205636,389.5426637279594L373.0542940171715,392.54141639217164L370.0842553963359,392.8244889556281L375.5443572767398,385.49336368920785L373.45784018078484,384.43676128657205L373.17505214946493,381.92241086998615L376.24444872725076,373.15018891687635L378.15059291674226,372.8489512691335L375.1331681933612,368.8344676419303L371.9460706511881,370.8568470257697L368.63821497672166,367.1708486727381L366.0121077453293,367.953461054059L366.1710804764496,369.26588839372175L362.70883782272205,367.3706645998835L360.0368730727372,377.69902877349347L356.9460763196082,378.25457760123976L355.2692197230788,371.78175256733226L353.1704739554992,372.3524389653167L351.8100342372574,375.78412613834513L353.66114940443805,379.7350319705484L353.95769469133563,383.0092884130977L352.4948398482375,382.21910724665725L354.74491542717215,387.1433588451851L353.9393516838986,388.86752809533067L355.3563490084044,389.9316992830848L353.77579320091905,393.8069172640962L357.07753453957315,390.79454078666896L355.5336647469617,394.0233845185044L357.28236478928596,392.38852693276533L356.18178434306793,394.6273735710132L357.2517931102243,395.85957178841335L358.9072495314106,390.1178913970157L359.48964001753427,392.27196764192934L360.97389503597554,391.45908012013115L358.0130279188585,396.77085351676004L360.6391351502509,394.10966866886264L364.0983206360723,393.8583850029063L362.60642269786564,394.9149874055414L364.18697850535096,397.4944293741524L362.5101219088216,404.00812584770387Z" stroke="#000000" stroke-width="1.3" fill="#0B6623"></path><path d="M357.4474518562186,401.8419395465998L357.4031229215793,400.4174941871729L362.74705242154903,400.27065975586106L361.6235432160349,395.42815103662076L356.40801476812385,399.7847437512114L357.397008585767,401.74808661112144Z" stroke="#000000" stroke-width="1.3" fill="#0B6623"></path><path d="M356.5929734264466,398.1211247820194L357.70578254428926,396.3258089517532L356.49667263740247,398.24676661499683Z" stroke="#000000" stroke-width="1.3" fill="#0B6623"></path><path d="M385.02157778583955,365.6177339662857L386.9796938297358,363.8602620616158L388.4517201765524,367.50236146095597L390.454165155088,366.0642922883156L388.2010324082472,364.3582881224569L389.8916462603543,363.28049312148823L390.1377482768003,364.5096638248396L392.7424553328497,363.78306045340037L391.95829176491935,365.68585303235847L394.43765493681605,364.71402102305797L394.5400700616724,366.2444293741525L395.65593634742123,364.4203521604337L395.5030779521132,367.8399292772717L396.86963200616725,366.9256200348772L397.1035053509886,368.46359717109056L395.23863292823023,373.8858748304595L397.62628106294216,372.62794274365376L400.2508597103816,374.35362575082297L399.73725550214647,366.3140621972494L403.33401354374513,361.94081815539647L401.46914112098676,359.26146822321226L402.75620880948065,358.0186737066464L401.60824226071713,357.79463766711905L401.625056684201,350.3015403991476L403.2224269151702,344.52050232513074L399.9726574309209,342.9794976748694L397.07293367192693,338.39735516372815L394.9145731301772,339.75822272815344L392.98550018138945,335.6135559968999L390.36856445371546,335.27598818058516L390.8821686619505,333.0462240844798L387.950344639942,331.7822369695793L386.7290060614306,327.6557353226117L384.92374841284243,326.78986630497974L385.26462263437935,324.3239561131563L382.63240106717456,323.7578109862427L382.4566139125703,320.66369162952856L380.36092531289677,320.17626186785554L381.1405031289679,319.0227790156944L376.4431646411512,314.99164406122884L376.3896642027934,312.8693567138154L371.35298007739283,312.9117419104829L368.65197223229944,313.9501792288315L374.59204947397063,329.21641881418327L373.51592637100185,339.39946231350547L370.559645005744,345.9812778531286L363.0435977084467,349.68392753342323L364.41320893040694,354.13437318349116L360.68804983674954,357.35716188723086L362.70883782272205,367.3706645998835L366.1710804764496,369.26588839372175L366.0121077453293,367.953461054059L368.63821497672166,367.1708486727381L371.9460706511881,370.8568470257697L375.1331681933612,368.8344676419303L376.79015319850055,372.70363059484566L378.43949528387446,371.93464202673863L378.6993545558982,373.9691314667698L380.62384175282665,373.2803720209261L382.1080967712679,374.93188093392706L380.99070190156596,375.8098600077499L383.9928407854163,379.7062705870954L384.8549621349537,377.5355430149195L382.4306279853679,365.0107173997289L383.28204924723383,364.08732561519093L383.9592119384485,367.2586465801199L385.1331644144144,365.70250435962055ZM381.16343188826414,364.80938771555896L381.5532207962997,363.80273929470997L381.25973267730814,364.92594700639404ZM397.50093717878946,372.39633791900786L396.82377448757484,373.3802799844996L397.42450798113555,372.3448701801971Z" stroke="#000000" stroke-width="1.3" fill="#0B6623"></path><path d="M407.6125200284177,345.11995010656796L406.4599677277949,346.23407527610925L404.3765077997461,344.49779596977316L402.0270742638612,346.0917821158687L401.60824226071713,357.79463766711905L402.7653803131991,357.91725198604945L401.46914112098676,359.26146822321226L403.33401354374513,361.94081815539647L399.73725550214647,366.3140621972494L399.5813399389322,370.4254262739778L403.028296753129,383.0940588064327L406.81612778886273,384.05075324549506L410.42358591813297,380.12406752567307L410.09799753612674,384.43524752954795L415.02768078481165,379.07957517922944L421.0059726253099,378.33329296647906L420.2065232178487,373.8798198023635L423.31413439446163,370.1029960279015L420.1805372906463,366.1626864948659L422.30985473728765,359.6323386940517L420.6177123012274,359.2175692695215L420.93107201160893,356.1385874830456L418.42572291250985,355.95390912613834L420.0842365016023,353.52281534586314L417.66907385573495,349.10869986436757L416.4813641241913,349.5401206161595L414.1349877562125,344.63403410191785L412.5544319487272,345.4332978105022L412.75926219844007,344.1435768261966L410.007811082895,343.957384712265L408.68711454743334,341.9183540011628L407.45049012939114,345.00944584382853Z" stroke="#000000" stroke-width="1.3" fill="#0B6623"></path><path d="M422.05763838502935,359.3447248595232L422.34654075216156,362.7158617515982L420.4388679787169,363.1987502422016L420.1805372906463,366.1626864948659L423.09860405707724,368.5256612090676L425.12244921095595,367.8293329781056L424.6531739373602,366.18993412129447L427.00872180905736,363.6770974617322L431.1786988330613,364.11911451269134L430.4403927837233,361.3216915326488L440.7904347300321,359.3477523735712L437.67823780155993,351.66694923464456L439.1365068927989,349.2101215849642L436.5608429318581,339.6416634373183L430.6727375445916,343.01734160046516L428.4027903742669,342.6116547180781L426.4477314982768,339.2889580507663L422.7302153243848,340.6891832978104L421.9857949392346,346.9152659368331L419.53088911058705,346.25980914551445L417.5208012122861,349.9594313117617L420.0842365016023,353.52281534586314L418.42572291250985,355.95390912613834L420.93107201160893,356.1385874830456L420.6177123012274,359.2175692695215L421.98120918737527,359.33715607440337Z" stroke="#000000" stroke-width="1.3" fill="#0B6623"></path><path d="M398.3508298567024,298.302472873474L393.72686339863355,293.1360201511331L389.7800596317794,294.0548706645999L384.5477167603846,285.65654669637644L384.69140365197416,283.07104969967054L380.2783817794304,280.12225101724493L378.791069593083,276.60579345088166L373.954629965536,273.71603129238486L369.8855394824355,273.5631418329785L367.32210419311923,291.4345572563456L371.9216133079388,296.57527610928094L374.0708023459701,296.3270199573721L378.6412683656811,303.0163122456888L376.02280405405406,309.93872311567526L376.4431646411512,314.99164406122884L381.1405031289679,319.0227790156944L380.36092531289677,320.17626186785554L382.4566139125703,320.66369162952856L382.63240106717456,323.7578109862427L384.73420400266036,323.5277199186207L386.92007905556557,330.33811276884353L390.264620744906,332.2954006006586L390.36856445371546,335.27598818058516L392.98550018138945,335.6135559968999L394.4300120170506,339.34950833171905L397.07293367192693,338.39735516372815L399.9726574309209,342.9794976748694L406.4599677277949,346.23407527610925L408.68711454743334,341.9183540011628L410.007811082895,343.957384712265L412.75926219844007,344.1435768261966L412.5544319487272,345.4332978105022L414.1349877562125,344.63403410191785L416.4813641241913,349.5401206161595L419.53088911058705,346.25980914551445L421.9857949392346,346.9152659368331L423.01758910756394,340.3728080798296L426.4477314982768,339.2889580507663L428.4027903742669,342.6116547180781L430.6727375445916,343.01734160046516L434.6715131658504,339.65528725053287L437.65072329040447,339.673452334819L436.25359755728886,336.20997626428885L429.03103837898306,329.49495010656824L428.5877490325896,326.179822224375L433.1551578843945,322.7118048827743L432.1264208839712,320.164151811664L430.37924942560016,320.6939667700058L428.4318334693754,313.6988955628749L426.1267288681299,312.45307353226104L423.0909611373118,313.6807304785898L420.82101396698715,311.5872045146284L419.83660590120326,306.086211490021L415.91120230969227,304.9932789188144L415.6391143660439,301.8280129819799L411.80695439567086,299.72994574694843L410.4511004292884,295.99096589808215L407.94422274623616,298.6264168765742L402.87543835782094,295.42330701414454L400.27531705363083,295.66399438093424L401.1878816736199,297.83018068203825L399.32606641876777,298.3827019957375L399.91762840860997,299.993339469095L398.29121508253223,298.4038945940705Z" stroke="#000000" stroke-width="1.3" fill="#0B6623"></path><path d="M441.3942253914989,335.9253899438096L442.913637840861,337.57538509978684L444.8992683959127,335.75130788606845L444.2542059677127,333.2884252082924L446.308622800653,331.653567622554L447.56511881008527,325.05207324161927L444.06619014148373,324.148360298392L447.13864388717576,322.0003390815732L445.73846098615394,318.0342956791321L443.00382429409274,317.4333341406701L445.2447283693089,317.48480187948087L443.85983130781784,315.8665956210032L445.49541613761414,314.0243533229998L443.9423748412843,314.1045824452625L443.77270202249224,307.9223987599307L445.1392560765463,307.1064837240849L443.5388286776709,304.68598624297607L445.9708057470222,305.55185526060825L443.861359891771,304.43167506297215L445.70636072313926,304.7722703933344L443.1352825140577,301.8264992249558L445.1438418284056,300.996960375896L442.5788779551363,297.0944947684555L445.1285559888748,297.0278894594066L442.4688199105145,296.2089469095135L445.474015962271,295.291610153071L443.3645701070198,294.7708777368726L445.6819033798899,293.66129383840365L443.4730995676885,291.4693736678943L446.9873140758208,293.38579006006626L446.71828330007867,291.675244623135L449.2221038152246,294.745143867467L449.51253476631,291.85538170897087L447.6155620805369,291.950748401472L448.1261091208658,288.71584964154215L446.4752384515388,287.2202577019953L449.2373896547555,278.08473406316614L438.01299768728455,277.03872795969755L435.8225368825201,274.6303405347802L434.87481483161014,276.37116111218734L433.9179212769817,274.8937342569272L425.66968226615876,274.5380013563259L420.2569664883004,270.5719579538853L416.1099182235928,274.90735807014164L418.58775281153635,278.55551249757826L412.51316018199407,282.89696764192945L413.1047221718363,287.916585932958L408.4945129693452,288.6613543886847L406.4630248957011,286.2968659174572L406.7335842553963,291.13937463669816L402.87543835782094,295.42330701414454L407.94422274623616,298.6264168765742L410.57032997762866,296.05454369308245L411.80695439567086,299.72994574694843L415.6391143660439,301.8280129819799L415.91120230969227,304.9932789188144L419.83660590120326,306.086211490021L420.82101396698715,311.5872045146284L423.0909611373118,313.6807304785898L426.1267288681299,312.45307353226104L428.4318334693754,313.6988955628749L430.37924942560016,320.6939667700058L432.1264208839712,320.164151811664L433.1551578843945,322.7118048827743L428.5877490325896,326.179822224375L429.03103837898306,329.49495010656824L436.25359755728886,336.20997626428885L436.4614849749078,338.6728589420653L439.01116300864624,338.8302896725438L441.35295362476575,335.8951148033326Z" stroke="#000000" stroke-width="1.3" fill="#0B6623"></path><path d="M467.0973645625491,250.09233917845353L467.27468030110646,249.03725053284288L467.09889314650223,250.1680270296453Z" stroke="#000000" stroke-width="1.3" fill="#0B6623"></path><path d="M467.34040941108896,248.89192985855445L467.47492479896005,247.18289817864752L467.26245162948186,248.88284731641158Z" stroke="#000000" stroke-width="1.3" fill="#0B6623"></path><path d="M449.85340898784693,269.3745761480327L447.56053305822604,267.08123425692685L448.14445212830276,270.7611775818642L449.92066668178245,269.634942356132Z" stroke="#000000" stroke-width="1.3" fill="#0B6623"></path><path d="M420.0078073039482,261.89813020732436L418.3003790283572,263.7373449912807L408.68558596348026,263.7449137764001L407.7195209051333,269.26709939934096L409.4621066116452,269.4472364851765L412.67060432916145,274.60460666537455L414.6195488693391,273.3708946909516L416.1099182235928,274.90735807014164L420.2569664883004,270.5719579538853L425.66968226615876,274.5380013563259L433.9179212769817,274.8937342569272L434.87481483161014,276.37116111218734L435.8225368825201,274.6303405347802L438.01299768728455,277.03872795969755L449.47890591934214,278.0423488664987L449.39789096982895,275.28731108312314L450.3119841737711,276.5346468707613L451.86808263800714,275.06478880062014L447.4963325321966,272.3536499709357L446.9047705423544,266.77999660918385L448.41042573613885,264.7076632435575L450.22791205635167,268.11815781825237L452.75771849870006,268.51930342956774L452.1936710200133,266.6422447200152L454.7662778130479,266.6437584770393L456.03500249410484,263.5647766905636L454.8365926748897,260.5433176709937L456.6235073160409,261.29262739779136L456.9995389684987,260.0876768068204L455.0230799171655,252.9896701220693L452.3083148164944,249.99999999999966L453.53576773081807,249.9273396628559L453.3752664157446,246.6576244913778L453.84912744119964,248.98729655105583L453.28355137855976,246.05363543886764L451.0166613761412,244.04639362526615L453.5831538333636,246.1459746173224L456.4079769786565,256.4819075760507L457.9059892526755,254.4928308467349L459.60271744059503,255.95814764580527L457.10501126126127,256.41076099593073L460.4969390531471,256.58484305367193L461.45688977568176,254.73049069947652L460.3547807455106,255.53732319317962L460.24319411693574,253.5966866886261L461.5700049882097,253.25911887231146L462.34958280428083,255.3117733966288L464.83200314408367,252.2872868630107L462.9472591299353,251.17164793644653L465.54890901807846,250.97940079441983L460.2814087157627,249.34302945165686L462.2960823659229,247.99729945746958L463.70849393856946,248.99940660724624L462.88917293971826,247.60220887424904L464.2190409788984,248.83894836272026L464.99250445915715,244.5731810695606L466.1893856944193,245.81748934315056L466.21078586976233,243.6952019957372L468.15055890622165,244.30221856229394L467.606383018925,241.2928695989151L469.43762659471554,242.1996100561904L468.0557867011307,242.1784174578571L468.34927482012216,243.66341309823648L470.6253363262592,242.7914890525094L468.08330121228613,240.06369889556268L470.08116043896246,241.16268649486528L470.58253597557285,239.8275527998445L472.8662404014753,243.3530929083515L474.1747082653123,238.18058515791523L476.25816819336114,238.57870325518377L475.61922010097345,229.6551055996904L470.73080861902173,223.64094894400304L463.9438958673438,220.69215026157673L460.7659698288893,217.10151860104625L451.84515387871096,220.2637570238327L450.993732616845,219.00733869405104L449.0524309964327,220.1184363495447L440.315045120624,218.16417603177675L439.5843819910515,215.80877010269333L436.4293847118931,216.98344555318744L434.8549432402201,219.23591600465002L436.07322465082535,220.52563698895545L434.0432651611343,221.78205531873624L434.3719107110466,225.47562245688775L430.74458099038634,227.640295000969L423.4669927897696,228.13680730478603L426.90477810024794,231.5245955241229L425.2860076939356,233.12615045533823L428.6550067265252,235.72224375121127L429.3031263226314,239.2720039720982L437.62473736320214,245.92799360589035L437.4061498579116,248.43931650842893L438.69321754640555,247.37968659174558L442.69352175161737,251.807425886456L439.9558278916501,254.17796938577774L438.210185017232,252.22370906800978L435.934123511095,252.9684775237352L432.3740514843702,260.15125460182173L427.1126655178669,261.19726070528975L425.5168238708507,259.2112114900215L421.3040464961606,260.88845427242757Z" stroke="#000000" stroke-width="1.3" fill="#0B6623"></path><path d="M453.06037812141005,269.98310647161367L451.72286716246447,268.4526981205193L453.05732095350385,269.98159271458996Z" stroke="#000000" stroke-width="1.3" fill="#0B6623"></path><path d="M456.2765187586916,264.5774801395081L458.0313331368281,262.759457953885L456.9429813622348,261.64987405541547L456.20926106475605,264.5865626816505Z" stroke="#000000" stroke-width="1.3" fill="#0B6623"></path><path d="M457.56052927927925,260.67652828909104L459.31992940927506,258.0183709552414L457.6277869732148,258.0456185816698L457.2486981528508,260.4782261189691Z" stroke="#000000" stroke-width="1.3" fill="#0B6623"></path><path d="M458.4593366436907,261.7013417942262L457.1951977144931,261.0625363301681L458.42876496462907,261.71496560743986Z" stroke="#000000" stroke-width="1.3" fill="#0B6623"></path><path d="M457.26551257633474,257.76708728928526L456.4568916651551,256.82250290641355L457.1600402835722,257.8442888975005Z" stroke="#000000" stroke-width="1.3" fill="#0B6623"></path><path d="M464.94511835661166,249.03876428986632L465.71399608501116,247.69757556675026L464.8855035824416,249.07358070141456Z" stroke="#000000" stroke-width="1.3" fill="#0B6623"></path><path id="jamtland" d="M366.557812216579,260.9641421236189L369.8855394824355,273.5631418329785L373.954629965536,273.71603129238486L378.791069593083,276.60579345088166L380.2783817794304,280.12225101724493L384.69140365197416,283.07104969967054L384.5477167603846,285.65654669637644L389.7800596317794,294.0548706645999L393.72686339863355,293.1360201511331L396.8130743999032,296.378487696183L396.50124327347487,294.1335860298399L401.6097708446702,295.8335351676035L406.7335842553963,291.13937463669816L405.7690477810024,286.86452480139536L408.4945129693452,288.6613543886847L413.1047221718363,287.916585932958L412.51316018199407,282.89696764192945L418.58775281153635,278.55551249757826L415.24168253824297,273.64488471226514L412.67060432916145,274.60460666537455L409.4621066116452,269.4472364851765L407.7195209051333,269.26709939934096L409.06161761593813,263.2665665568692L418.3003790283572,263.7373449912807L422.4795275560796,259.79249418717296L425.5168238708507,259.2112114900215L427.1126655178669,261.19726070528975L432.3740514843702,260.15125460182173L435.934123511095,252.9684775237352L438.210185017232,252.22370906800978L439.9558278916501,254.17796938577774L442.69352175161737,251.807425886456L438.69321754640555,247.37968659174558L437.4061498579116,248.43931650842893L437.62473736320214,245.92799360589035L429.3031263226314,239.2720039720982L428.6550067265252,235.72224375121127L425.2860076939356,233.12615045533823L426.90477810024794,231.5245955241229L423.4669927897696,228.13680730478603L430.74458099038634,227.640295000969L434.3719107110466,225.47562245688775L434.0432651611343,221.78205531873624L436.07322465082535,220.52563698895545L434.8549432402201,219.23591600465002L437.0622184684685,216.74729945746967L436.0915676582623,213.76368436349534L437.32972066025764,212.36497287347368L435.44803381401533,212.66469676419297L431.8130611735897,208.37016808757934L428.71309291674226,208.40044322805613L428.8231509613641,206.6217787250534L426.59447555777257,207.65264725828274L424.0356260203156,201.77472873474122L421.6479778856037,201.79289381902714L422.95950291734687,198.3097389071889L418.85066925146623,197.54075033908137L414.4407045468287,193.6261746754503L415.8515875355221,190.34132193373338L413.42419621803015,192.82993848091456L411.46149442227465,192.03218852935456L411.6693818398936,189.27563698895622L408.4624127063305,186.97775382677818L407.30068890198925,183.20698508041144L409.83660968015,181.6765767293158L408.71157189068265,180.51703884906067L399.9971147741702,178.19190806045304L391.12979926234965,193.90621972485917L390.4954369218212,195.56832493702785L397.5208087701796,199.8204684169747L398.1796284539573,209.12704659949642L395.3227050456497,215.5468901375704L383.7834247838443,212.5451099593099L379.3413598161921,213.91657382290214L375.6712297448455,216.78362962604137L367.5529203700345,229.73079345088155L368.56790011488,233.55908496415472L364.96808490537524,240.7736509397403L368.71770134228194,249.71844119356734L366.44316842009795,253.0320553187374L367.41687639821026,257.6989682232118Z" stroke="#000000" stroke-width="1.3" fill="#0B6623"></path></g></g><g><g></g></g><g></g></g><g></g><g></g><g></g></g></svg>